<svg xmlns="http://www.w3.org/2000/svg" viewBox="0 0 225.4 220.35"><defs><style>.cls-1{fill:#61b9ff;}.cls-2{fill:#1657bf;}.cls-3{fill:#9adfff;}</style></defs><g id="Calque_2" data-name="Calque 2"><g id="Calque_14" data-name="Calque 14"><path class="cls-1" d="M0,90.33c12.94,4.08,27,8,42,11.83l.26-67.34A408.1,408.1,0,0,0,0,45.55Z"/><path class="cls-2" d="M0,112A103.79,103.79,0,0,0,8.3,153.44a110.82,110.82,0,0,0,22.48,33.9,109.26,109.26,0,0,0,33.33,23.32,105.43,105.43,0,0,0,40.94,9.4h3a22.1,22.1,0,0,0,14.27-6.54,19.45,19.45,0,0,0,5.87-14.27,21.2,21.2,0,0,0-21.14-21.14h-1.68a60.06,60.06,0,0,1-24.67-5.87,68.77,68.77,0,0,1-20.13-14.43A68.06,68.06,0,0,1,47,137.17,63.15,63.15,0,0,1,42,112l0-9.84C27,98.35,13,94.41,0,90.33Z"/><path class="cls-3" d="M36,10A20.91,20.91,0,0,0,21,3.93,20.33,20.33,0,0,0,6.1,10,20,20,0,0,0,0,24.74V45.55A408.1,408.1,0,0,1,42.26,34.82l0-10.08A19.72,19.72,0,0,0,36,10Z"/><path class="cls-1" d="M129.72,220.35c-4.07-13-8-27.11-11.82-42.19l67.34-.26a411.62,411.62,0,0,1-10.73,42.45Z"/><path class="cls-2" d="M42,112.78v1.69a60.53,60.53,0,0,0,5.87,24.78,69.29,69.29,0,0,0,14.43,20.24,68.22,68.22,0,0,0,20.64,13.65,62.82,62.82,0,0,0,25.17,5.06l9.84,0c3.81,15.08,7.75,29.2,11.82,42.19H108.06A103.47,103.47,0,0,1,66.62,212,109.44,109.44,0,0,1,9.4,156,106.42,106.42,0,0,1,0,114.8v-3A22.21,22.21,0,0,1,6.54,97.44"/><path class="cls-3" d="M210.08,184.16a21,21,0,0,1,6,15.12,20.49,20.49,0,0,1-6,15,20,20,0,0,1-14.76,6.11H174.51a411.62,411.62,0,0,0,10.73-42.45l10.08,0A19.64,19.64,0,0,1,210.08,184.16Z"/><path class="cls-1" d="M224.09,99.76c.35-1.75.61-3.24.79-4.47a23.66,23.66,0,0,0,.26-3.16,1.09,1.09,0,0,0,.26-.79V89.5a19.18,19.18,0,0,0-5.13-13.3A18.34,18.34,0,0,0,207.51,70h-40.8a16.17,16.17,0,0,0-16.32,16.32,16.21,16.21,0,0,0,4.73,11.71,15.54,15.54,0,0,0,11.59,4.87h22.63a55.38,55.38,0,0,1-7.63,13.56,52.91,52.91,0,0,1-4.7,5.31c12.9-.73,26.61-1.55,41-2.44A83.36,83.36,0,0,0,224.09,99.76Z"/><path class="cls-1" d="M79.92,26A86.14,86.14,0,0,0,62.65,51.86a83.44,83.44,0,0,0,0,65.8c1.15,2.62,2.39,5.16,3.74,7.6,14.21,0,28.06-.08,41.48-.39-1.32-1.07-2.59-2.19-3.81-3.39a51.63,51.63,0,0,1,0-73.44A54.47,54.47,0,0,1,120.51,37a49.77,49.77,0,0,1,20.14-4.08,50.63,50.63,0,0,1,13.16,1.71,58.71,58.71,0,0,1,11.84,4.61L172,43.43a15.45,15.45,0,0,0,12.37,2.11,16.3,16.3,0,0,0,10.27-7.37,17.11,17.11,0,0,0,2-4.57c-20.33-1.1-39-2.21-55.76-3.31C121.65,29,101.22,27.54,79.92,26Z"/><path class="cls-2" d="M81,144.64a87,87,0,0,0,26.93,18.16,81,81,0,0,0,32.77,6.72,82,82,0,0,0,29.61-5.4,86.77,86.77,0,0,0,25.14-14.74A85.23,85.23,0,0,0,214,127.27a83.22,83.22,0,0,0,4.05-7.92c-14.38.89-28.09,1.71-41,2.44a51,51,0,0,1-6.36,5.35,51.79,51.79,0,0,1-14,7,51.15,51.15,0,0,1-16,2.5,49.6,49.6,0,0,1-20.14-4.08,54.59,54.59,0,0,1-12.64-7.66c-13.42.31-27.27.44-41.48.39A84.56,84.56,0,0,0,81,144.64Z"/><path class="cls-3" d="M196.84,25.8a15.79,15.79,0,0,0-7.23-10.27l-2.9-1.84a93.3,93.3,0,0,0-21.58-10A80.24,80.24,0,0,0,140.65,0a81.14,81.14,0,0,0-32.77,6.71A87.23,87.23,0,0,0,81,24.88c-.36.35-.67.75-1,1.12,21.3,1.54,41.73,3,60.92,4.29,16.71,1.1,35.43,2.21,55.76,3.31A15.79,15.79,0,0,0,196.84,25.8Z"/></g></g></svg>